<svg version="1.1" xmlns="http://www.w3.org/2000/svg" viewBox="0 0 67.3 33" width="25">
  <path fill="#FF0000" d="M0,0h16v32.5H0V0z M46.5,16.6l-1-0.5c-0.5-0.2-0.3-0.6-0.2-1.1v-0.2l1-3.6l-2.9,0.6c-0.5,0.1-0.9,0.2-1.1-0.3 l-0.7-1.7l-2.8,3c-0.8,0.8-1.5,0.4-1.2-0.8l1.3-6.2l-1.9,1c-0.5,0.2-0.7,0.3-1-0.2l-2.2-4.4l-2.3,4.6c-0.2,0.3-0.6,0.2-0.9-0.1 l-2.1-1.2l1.4,6.8c0.2,0.9-0.5,1.3-1,0.7L26,9.8l-0.9,1.7c-0.2,0.4-0.4,0.6-1.2,0.4L21,11.3l1.2,3.6c0.1,0.6,0.1,0.9-0.2,1.1 l-1.3,0.7l6,4.9c0.5,0.4,0.4,0.9,0.2,1.5l-0.7,1.7l5.1-1c1.1-0.2,1.6-0.2,1.6,0.4l-0.2,6.3h1.7l-0.2-6.3c0-0.6,0.5-0.6,1.2-0.4 l5.5,1l-0.5-1.7c-0.2-0.7-0.4-0.9,0.2-1.5L46.5,16.6z M51.4,0v32.5h16V0H51.4z" />
</svg>